# xmcd
#
# Track frame offsets:
#	150
#	10451
#	20809
#	32035
#	42042
#	55234
#	67480
#	82042
#	97800
#
# Disc length: 1470 seconds
#
# Revision: 0
# Processed by: cddbd v1.5.2PL0 Copyright (c) Steve Scherf et al.
# Submitted via: EasyCDDAExtractor 16.0.1.1
#
DISCID=7605bc09
DTITLE=Wanda Jackson - By The Time I Get To Phoenix
DYEAR=196
DGENRE=Country
TTITLE0=By The Time I Get To Phoenix
TTITLE1=Honey Don't
TTITLE2=This Land Is Your Land
TTITLE3=Your Tender Love
TTITLE4=Searchin'
TTITLE5=If I Had A Hammer
TTITLE6=Fever
TTITLE7=The Keeper Of The Key
TTITLE8=Whole Lot Of Shakin' Going On
EXTD=
EXTT0=
EXTT1=
EXTT2=
EXTT3=
EXTT4=
EXTT5=
EXTT6=
EXTT7=
EXTT8=
PLAYORDER=
